<svg width="33" height="32" viewBox="0 0 33 32" fill="none" xmlns="http://www.w3.org/2000/svg">
<path d="M25.2761 9.31075V14.6563C25.2761 14.8121 25.1548 14.9356 24.9979 14.9367C23.6248 14.9457 22.0937 15.1482 20.4758 15.5922C20.2944 15.6422 20.1141 15.5109 20.1141 15.3229V9.99174C20.1141 9.86378 20.1976 9.74805 20.32 9.71133C21.8344 9.24955 23.4267 9.0359 24.9846 9.01921C25.1448 9.0181 25.2761 9.15051 25.2761 9.31075ZM14.0486 15.2428C13.9596 15.6289 13.6157 15.8893 13.2363 15.8893C13.174 15.8893 13.1105 15.8826 13.0471 15.867C11.7285 15.5621 10.2786 15.3629 8.73748 15.2761C8.27681 15.2505 7.92518 14.8555 7.95078 14.396C7.97748 13.9364 8.37695 13.5759 8.83095 13.6093C10.4667 13.7016 12.0123 13.9141 13.4232 14.2413C13.8739 14.347 14.1532 14.7943 14.0486 15.2428ZM7.95189 9.6123C7.97859 9.15163 8.37807 8.80334 8.83206 8.82559C10.4678 8.91795 12.0134 9.13048 13.4243 9.45763C13.8728 9.56223 14.1532 10.0095 14.0486 10.458C13.9596 10.8441 13.6157 11.1045 13.2363 11.1045C13.174 11.1045 13.1105 11.0978 13.0471 11.0822C11.7285 10.7773 10.2786 10.5782 8.73748 10.4914C8.27792 10.4658 7.9263 10.0719 7.95189 9.6123Z" fill="#FF7E06"/>
<path d="M29.9273 0.795044H3.22157C1.99199 0.795044 0.996094 1.79094 0.996094 3.02052V21.9371C0.996094 23.1666 1.99199 24.1625 3.22157 24.1625H7.67252V31.6513C7.67252 31.9194 8.00078 32.0496 8.18438 31.8549L15.4617 24.1625H29.9273C31.1569 24.1625 32.1528 23.1666 32.1528 21.9371V3.02052C32.1528 1.79094 31.1569 0.795044 29.9273 0.795044ZM15.7399 21.0858C12.6765 19.9864 8.71182 19.6081 5.75861 19.9664C5.58948 19.9864 5.44704 19.8574 5.44704 19.686V4.96336C5.44704 4.81759 5.55053 4.69185 5.6963 4.67293C8.65507 4.30128 12.6554 4.67739 15.7399 5.78456V21.0858ZM27.7018 19.686C27.7018 19.8574 27.5594 19.9864 27.3902 19.9664C24.4381 19.6081 20.4723 19.9864 17.409 21.0858V5.78567C20.4935 4.6785 24.4938 4.30239 27.4525 4.67405C27.5983 4.69185 27.7018 4.81759 27.7018 4.96336V19.686Z" fill="#FF7E06"/>
</svg>
