<svg width="33" height="33" viewBox="0 0 33 33" fill="none" xmlns="http://www.w3.org/2000/svg">
<path d="M32.6439 16.6774C32.8405 7.72291 25.7509 0.296329 16.8188 0.100193C7.88668 -0.0959438 0.477869 7.01227 0.281241 15.9667C0.108836 23.8181 5.53166 30.4778 12.8772 32.1484L13.1194 21.1176L9.88317 21.0465L9.99003 16.1799L13.2263 16.251L13.3154 12.1955C13.3841 9.06471 15.9805 6.57366 19.1035 6.64224L23.1488 6.73107L23.042 11.5976L19.8057 11.5266C18.9157 11.507 18.1715 12.221 18.1519 13.1132L18.0807 16.3576L22.9351 16.4642L22.8282 21.3308L17.9738 21.2242L17.7263 32.4984C25.9156 31.8667 32.459 25.0965 32.6439 16.6774Z" fill="white"/>
</svg>
