<svg width="34" height="33" viewBox="0 0 34 33" fill="none" xmlns="http://www.w3.org/2000/svg">
<path d="M13.1522 16.7962C13.1631 17.9885 13.6472 19.1277 14.498 19.9631C15.3488 20.7985 16.4966 21.2617 17.6889 21.2509C18.8813 21.24 20.0205 20.7559 20.8559 19.9051C21.6913 19.0543 22.1545 17.9065 22.1437 16.7142C22.1328 15.5218 21.6487 14.3826 20.7979 13.5472C19.9471 12.7118 18.7993 12.2486 17.6069 12.2595C16.4146 12.2703 15.2754 12.7544 14.44 13.6052C13.6046 14.456 13.1414 15.6038 13.1522 16.7962Z" fill="white"/>
<path fill-rule="evenodd" clip-rule="evenodd" d="M1.15668 23.0073C1.18017 25.5827 2.22578 28.0434 4.06351 29.8479C5.90123 31.6524 8.38052 32.6529 10.956 32.6295L23.9036 32.5114C26.4791 32.4879 28.9397 31.4423 30.7442 29.6046C32.5487 27.7668 33.5493 25.2875 33.5258 22.7121L33.4077 9.76445C33.3842 7.189 32.3386 4.72837 30.5009 2.92386C28.6631 1.11936 26.1839 0.118792 23.6084 0.14228L10.6608 0.260359C8.08532 0.283847 5.62469 1.32946 3.82019 3.16719C2.01568 5.00491 1.01511 7.4842 1.0386 10.0596L1.15668 23.0073ZM17.3511 23.9387C15.3479 23.9569 13.4196 23.1787 11.9903 21.7752C10.5609 20.3717 9.74767 18.4579 9.7294 16.4547C9.71113 14.4516 10.4894 12.5233 11.8929 11.0939C13.2964 9.6646 15.2102 8.85135 17.2133 8.83308C19.2164 8.81481 21.1448 9.59303 22.5741 10.9965C24.0035 12.4 24.8167 14.3139 24.835 16.317C24.8532 18.3201 24.075 20.2485 22.6715 21.6778C21.268 23.1071 19.3542 23.9204 17.3511 23.9387ZM9.66052 8.90196L9.64084 6.74402L7.4829 6.7637L7.50258 8.92164L9.66052 8.90196Z" fill="white"/>
</svg>
