<svg width="33" height="34" viewBox="0 0 33 34" fill="none" xmlns="http://www.w3.org/2000/svg">
<path fill-rule="evenodd" clip-rule="evenodd" d="M0.156802 23.4047C0.180289 25.9802 1.22591 28.4408 3.06363 30.2453C4.90135 32.0498 7.38065 33.0504 9.95609 33.0269L22.9037 32.9088C25.4792 32.8854 27.9398 31.8397 29.7443 30.002C31.5488 28.1643 32.5494 25.685 32.5259 23.1095L32.4078 10.1619C32.3843 7.58646 31.3387 5.12583 29.501 3.32133C27.6633 1.51682 25.184 0.516253 22.6085 0.539741L9.66089 0.65782C7.08545 0.681308 4.62482 1.72692 2.82031 3.56465C1.0158 5.40237 0.0152347 7.88166 0.0387222 10.4571L0.156802 23.4047ZM16.3512 24.3361C14.3481 24.3544 12.4197 23.5762 10.9904 22.1727C9.56105 20.7692 8.74779 18.8553 8.72952 16.8522C8.71125 14.8491 9.48947 12.9207 10.893 11.4914C12.2965 10.0621 14.2103 9.24881 16.2134 9.23054C18.2166 9.21227 20.1449 9.99049 21.5742 11.394C23.0036 12.7975 23.8168 14.7113 23.8351 16.7145C23.8534 18.7176 23.0752 20.6459 21.6716 22.0753C20.2681 23.5046 18.3543 24.3179 16.3512 24.3361ZM8.66064 9.29942L8.64096 7.14148L6.48302 7.16116L6.5027 9.3191L8.66064 9.29942Z" fill="white"/>
</svg>
