<svg width="26" height="20" viewBox="0 0 26 20" fill="none" xmlns="http://www.w3.org/2000/svg">
<path d="M22.6848 5.04919L13.0453 11.0738L3.40594 5.04919V2.63934L13.0453 8.66397L22.6848 2.63934M22.6848 0.229492H3.40594C2.06848 0.229492 0.996094 1.30188 0.996094 2.63934V17.0984C0.996094 17.7376 1.24999 18.3505 1.70192 18.8025C2.15386 19.2544 2.76681 19.5083 3.40594 19.5083H22.6848C23.3239 19.5083 23.9368 19.2544 24.3888 18.8025C24.8407 18.3505 25.0946 17.7376 25.0946 17.0984V2.63934C25.0946 2.00021 24.8407 1.38726 24.3888 0.935321C23.9368 0.483386 23.3239 0.229492 22.6848 0.229492Z" fill="#FF7E06"/>
</svg>
