<svg width="17" height="30" viewBox="0 0 17 30" fill="none" xmlns="http://www.w3.org/2000/svg">
<path d="M13.5445 0.989746H3.22488C1.44474 0.989746 0 2.43449 0 4.21462V26.1438C0 27.9239 1.44474 29.3687 3.22488 29.3687H13.5445C15.3246 29.3687 16.7694 27.9239 16.7694 26.1438V4.21462C16.7694 2.43449 15.3246 0.989746 13.5445 0.989746ZM8.38468 28.0787C7.31402 28.0787 6.44975 27.2144 6.44975 26.1438C6.44975 25.0731 7.31402 24.2089 8.38468 24.2089C9.45534 24.2089 10.3196 25.0731 10.3196 26.1438C10.3196 27.2144 9.45534 28.0787 8.38468 28.0787ZM14.1895 22.9189H2.5799V4.8596H14.1895V22.9189Z" fill="#FF7E06"/>
</svg>
