<svg width="32" height="32" viewBox="0 0 32 32" fill="none" xmlns="http://www.w3.org/2000/svg">
<path d="M12.7778 19.1669C9.24922 19.1669 6.38877 16.3064 6.38877 12.7779C6.38877 9.24936 9.24922 6.38892 12.7778 6.38892C16.3063 6.38892 19.1667 9.24936 19.1667 12.7779C19.1667 16.3064 16.3063 19.1669 12.7778 19.1669Z" fill="#FF7E06"/>
<path d="M5.32404 0H26.6207C27.3198 0 28.0122 0.137713 28.6581 0.405277C29.3041 0.672841 29.891 1.06502 30.3854 1.55941C31.3839 2.55788 31.9448 3.9121 31.9448 5.32416V26.6208C31.9448 28.0328 31.3839 29.3871 30.3854 30.3855C29.891 30.8799 29.3041 31.2721 28.6581 31.5397C28.0122 31.8072 27.3198 31.9449 26.6207 31.9449H5.32404C3.91198 31.9449 2.55776 31.384 1.55929 30.3855C0.560816 29.3871 -0.00012064 28.0328 -0.00012064 26.6208V5.32416C-0.00012064 4.62498 0.137592 3.93265 0.405156 3.28669C0.67272 2.64073 1.0649 2.0538 1.55929 1.55941C2.05368 1.06502 2.64061 0.672841 3.28657 0.405277C3.93253 0.137713 4.62486 0 5.32404 0V0ZM12.7779 21.2966C14.6697 21.299 16.5074 20.6652 17.9955 19.4971L25.8646 27.3768C25.9636 27.4766 26.0814 27.5558 26.2112 27.6099C26.3409 27.664 26.4801 27.6918 26.6207 27.6918C26.7612 27.6918 26.9004 27.664 27.0302 27.6099C27.1599 27.5558 27.2777 27.4766 27.3767 27.3768C27.4765 27.2778 27.5557 27.1601 27.6098 27.0303C27.6638 26.9005 27.6917 26.7614 27.6917 26.6208C27.6917 26.4802 27.6638 26.341 27.6098 26.2113C27.5557 26.0815 27.4765 25.9637 27.3767 25.8648L19.4969 17.9957C20.665 16.5075 21.2989 14.6698 21.2965 12.778C21.2965 11.0931 20.7969 9.44615 19.8609 8.04527C18.9248 6.64438 17.5944 5.55253 16.0378 4.90777C14.4812 4.26301 12.7684 4.09432 11.116 4.42301C9.46349 4.7517 7.94562 5.56303 6.75426 6.75438C5.56291 7.94574 4.75158 9.46361 4.42289 11.1161C4.09419 12.7685 4.26289 14.4813 4.90765 16.0379C5.5524 17.5945 6.64426 18.9249 8.04515 19.861C9.44603 20.797 11.093 21.2966 12.7779 21.2966V21.2966Z" fill="#FF7E06"/>
</svg>
