<svg width="24" height="24" viewBox="0 0 24 24" fill="none" xmlns="http://www.w3.org/2000/svg">
<path d="M0 12C0 18.6275 5.3725 24 12 24C18.6275 24 24 18.6275 24 12C24 5.3725 18.6275 0 12 0C5.3725 0 0 5.3725 0 12ZM9.83 7.11875C9.9325 7.11375 10.035 7.1125 10.135 7.1125C13.26 7.1125 16.8612 9.48875 16.8612 13.8362C16.8634 15.1209 16.4944 16.3788 15.7987 17.4588C15.8212 17.275 15.83 17.0862 15.83 16.895C15.83 15.7875 15.4538 14.7687 14.8188 13.96C14.8091 14.4529 14.6459 14.9304 14.3519 15.3261C14.0579 15.7218 13.6478 16.0159 13.1788 16.1675C13.2461 15.8136 13.2319 15.4489 13.1375 15.1012C13.0293 15.6362 12.7395 16.1173 12.3171 16.4629C11.8947 16.8085 11.3658 16.9974 10.82 16.9975H10.7913C10.9675 16.6788 11.075 16.3137 11.0875 15.9262C10.7537 16.4278 10.2408 16.7828 9.65392 16.9187C9.06699 17.0546 8.45032 16.9612 7.93 16.6575C8.66 16.0638 9.25718 15.3234 9.68289 14.4843C10.1086 13.6452 10.3533 12.726 10.4012 11.7863C9.89414 11.9057 9.36176 11.8543 8.88688 11.64C8.412 11.4257 8.02124 11.0605 7.77533 10.6012C7.52942 10.1418 7.44215 9.61416 7.52709 9.10013C7.61203 8.58611 7.86441 8.11454 8.245 7.75875C8.14034 7.22979 7.94632 6.72253 7.67125 6.25875C8.21892 6.43505 8.68397 6.80416 8.98 7.2975C8.92356 6.82894 8.7976 6.37141 8.60625 5.94C9.08112 6.25689 9.49555 6.65608 9.83 7.11875Z" fill="white"/>
</svg>
