<svg width="33" height="34" viewBox="0 0 33 34" fill="none" xmlns="http://www.w3.org/2000/svg">
<path d="M16.1852 0.744873C7.24626 0.744873 0 7.99113 0 16.9301C0 25.8691 7.24626 33.1153 16.1852 33.1153C25.1242 33.1153 32.3704 25.8691 32.3704 16.9301C32.3704 7.99113 25.1242 0.744873 16.1852 0.744873ZM22.7689 14.0033C22.7756 14.1415 22.7773 14.2798 22.7773 14.4146C22.7773 18.6295 19.5723 23.4868 13.7085 23.4868C11.9759 23.4897 10.2792 22.992 8.82263 22.0537C9.07047 22.0841 9.32505 22.0959 9.583 22.0959C11.0768 22.0959 12.4508 21.5884 13.5416 20.7319C12.8769 20.7189 12.2328 20.4988 11.6991 20.1023C11.1654 19.7058 10.7687 19.1526 10.5642 18.52C11.0416 18.6107 11.5334 18.5917 12.0024 18.4643C11.2808 18.3184 10.632 17.9275 10.1659 17.3578C9.6997 16.7881 9.44493 16.0747 9.44475 15.3385V15.2998C9.87467 15.5375 10.367 15.6825 10.8896 15.6993C10.2132 15.2491 9.73438 14.5574 9.55104 13.7658C9.36771 12.9741 9.49373 12.1424 9.90333 11.4406C10.7041 12.4252 11.7027 13.2307 12.8345 13.8048C13.9663 14.379 15.2061 14.7091 16.4735 14.7738C16.3124 14.0898 16.3817 13.3717 16.6708 12.7312C16.9599 12.0907 17.4524 11.5637 18.0719 11.232C18.6914 10.9003 19.4032 10.7826 20.0965 10.8972C20.7898 11.0117 21.4258 11.3521 21.9057 11.8655C22.6191 11.7243 23.3033 11.4626 23.9288 11.0916C23.6911 11.8303 23.1932 12.4575 22.5278 12.8568C23.1598 12.7807 23.7769 12.6108 24.3588 12.3527C23.9313 12.9932 23.3929 13.5522 22.7689 14.0033Z" fill="white"/>
</svg>
