<svg width="44" height="30" viewBox="0 0 44 30" fill="none" xmlns="http://www.w3.org/2000/svg">
<path d="M42.2823 5.15121C41.9579 4.95053 41.589 4.84917 41.2181 4.84917C40.9079 4.84917 40.5978 4.92012 40.312 5.06202L35.1369 7.65058V6.87624C35.1369 2.58357 34.118 0.795044 29.0557 0.795044H6.75795C3.40519 0.795044 0.676758 3.52347 0.676758 6.87624V23.0928C0.676758 26.4455 3.40519 29.174 6.75795 29.174H29.0557C33.618 29.174 35.1369 27.1843 35.1369 23.0928V22.3184L40.312 24.905C40.5978 25.0489 40.9079 25.1198 41.2181 25.1198C41.589 25.1198 41.9579 25.0185 42.2823 24.8178C42.8802 24.4468 43.2451 23.7961 43.2451 23.0928V6.87624C43.2451 6.17285 42.8802 5.52216 42.2823 5.15121ZM10.8121 18.0251C9.13165 18.0251 7.77148 16.6649 7.77148 14.9845C7.77148 13.3041 9.13165 11.9439 10.8121 11.9439C12.4925 11.9439 13.8527 13.3041 13.8527 14.9845C13.8527 16.6649 12.4925 18.0251 10.8121 18.0251Z" fill="#FF7E06"/>
</svg>
